<?xml version="1.0" encoding="utf-8"?>
<!-- Generator: Adobe Illustrator 15.1.0, SVG Export Plug-In . SVG Version: 6.00 Build 0)  -->
<!DOCTYPE svg PUBLIC "-//W3C//DTD SVG 1.1//EN" "http://www.w3.org/Graphics/SVG/1.1/DTD/svg11.dtd">
<svg version="1.1" id="Layer_1" xmlns="http://www.w3.org/2000/svg" xmlns:xlink="http://www.w3.org/1999/xlink" x="0px" y="0px"
	 width="99.211px" height="99.211px" viewBox="0 0 99.211 99.211" enable-background="new 0 0 99.211 99.211" xml:space="preserve">
<g>
	<circle fill="none" stroke="#000000" stroke-width="0.9" stroke-linejoin="round" cx="48.489" cy="49.807" r="43.635"/>
	<circle stroke="#000000" stroke-width="0.4608" stroke-linejoin="round" cx="48.489" cy="49.807" r="1.862"/>
	
		<line fill="none" stroke="#000000" stroke-width="0.9037" stroke-linejoin="round" x1="36.966" y1="91.786" x2="78.72" y2="80.471"/>
	
		<line fill="none" stroke="#000000" stroke-width="0.9037" stroke-linejoin="round" x1="48.461" y1="49.824" x2="90.215" y2="38.51"/>
	<line fill="none" stroke="#000000" stroke-width="0.9" stroke-linejoin="round" x1="90.349" y1="38.43" x2="36.703" y2="91.694"/>
	<line fill="none" stroke="#000000" stroke-width="0.9" stroke-linejoin="round" x1="48.582" y1="49.541" x2="78.853" y2="80.389"/>
	<path fill="none" stroke="#000000" stroke-width="0.3827" stroke-miterlimit="3.8637" d="M66.211,83.743
		c-1.356-5.271-4.098-9.988-7.813-13.738"/>
	<path fill="none" stroke="#000000" stroke-width="0.3827" stroke-miterlimit="3.8637" d="M61.029,46.033
		c0.377,1.23,0.582,2.537,0.582,3.893c0,3.553-1.401,6.78-3.684,9.155"/>
	<rect x="37.772" y="46.229" fill="none" width="7.852" height="8.128"/>
	<g enable-background="new    ">
		<path d="M41.662,53.598c-2.678,0-3.498-2.229-3.498-3.777s0.82-3.778,3.498-3.778c2.679,0,3.498,2.229,3.498,3.778
			S44.341,53.598,41.662,53.598z M41.662,46.902c-1.559,0-2.499,1.229-2.499,2.919c0,1.688,0.939,2.918,2.499,2.918
			s2.499-1.229,2.499-2.918C44.161,48.131,43.221,46.902,41.662,46.902z"/>
	</g>
	<rect x="53.681" y="46.678" fill="none" width="6.881" height="8.129"/>
	<g enable-background="new    ">
		<path d="M58.012,50.987l0.659-1.777h0.879l-1.147,3.169c0.043,0.241,0.094,0.432,0.156,0.571c0.078,0.156,0.148,0.266,0.21,0.327
			c0.095,0.088,0.165,0.145,0.21,0.171c0.068,0.046,0.135,0.068,0.2,0.068c0.098,0,0.195-0.046,0.293-0.137
			c0.091-0.098,0.151-0.192,0.181-0.283c0.004-0.02,0.025-0.149,0.068-0.391h0.181l-0.02,0.591c0,0.13-0.03,0.267-0.093,0.41
			c-0.062,0.159-0.151,0.286-0.269,0.381c-0.13,0.101-0.247,0.151-0.352,0.151c-0.107,0-0.241-0.076-0.4-0.229
			c-0.159-0.166-0.352-0.557-0.576-1.172c-0.117,0.186-0.241,0.396-0.371,0.63c-0.222,0.3-0.459,0.493-0.713,0.581
			c-0.202,0.065-0.397,0.119-0.586,0.161c-0.169,0.032-0.306,0.049-0.41,0.049c-0.267,0-0.562-0.073-0.884-0.22
			c-0.318-0.146-0.555-0.347-0.708-0.601c-0.144-0.234-0.254-0.491-0.332-0.771c-0.065-0.237-0.098-0.524-0.098-0.859
			c0-0.146,0.003-0.264,0.01-0.352c0.013-0.173,0.036-0.358,0.068-0.557c0.029-0.251,0.127-0.515,0.293-0.791
			c0.163-0.271,0.399-0.511,0.708-0.723c0.307-0.205,0.68-0.308,1.123-0.308c0.059,0,0.104,0.003,0.137,0.01
			c0.023,0.003,0.053,0.008,0.09,0.012c0.038,0.006,0.102,0.015,0.193,0.027c0.113,0.017,0.268,0.093,0.459,0.229
			c0.16,0.117,0.332,0.32,0.518,0.61C57.86,50.262,57.967,50.603,58.012,50.987z M57.451,52.667l0.303-0.82
			c-0.056-0.381-0.112-0.728-0.171-1.04c-0.055-0.247-0.135-0.454-0.239-0.62c-0.127-0.186-0.241-0.325-0.342-0.42
			c-0.127-0.104-0.267-0.181-0.42-0.229c-0.14-0.046-0.273-0.068-0.4-0.068c-0.117,0-0.22,0.029-0.308,0.088
			c-0.068,0.049-0.166,0.146-0.293,0.293c-0.098,0.117-0.184,0.283-0.259,0.498c-0.065,0.198-0.112,0.425-0.142,0.679
			c-0.033,0.283-0.049,0.508-0.049,0.674c0,0.293,0.014,0.516,0.039,0.669c0.006,0.026,0.014,0.061,0.02,0.105
			c0.006,0.043,0.014,0.088,0.02,0.131c0.006,0.045,0.012,0.084,0.018,0.117c0.004,0.035,0.008,0.069,0.012,0.105
			c0.023,0.127,0.063,0.261,0.122,0.4c0.056,0.144,0.166,0.293,0.332,0.449c0.146,0.159,0.329,0.239,0.547,0.239
			c0.098,0,0.198-0.022,0.303-0.068c0.098-0.039,0.2-0.103,0.308-0.19c0.102-0.088,0.211-0.234,0.332-0.439
			C57.313,52.984,57.402,52.8,57.451,52.667z"/>
	</g>
	<rect x="50.106" y="78.213" fill="none" width="14.025" height="8.229"/>
	<g>
		<rect x="48.856" y="77.731" fill="none" width="15.75" height="10"/>
		<path d="M51.985,79.259c0-0.729,0.685-1.188,1.342-1.269h0.135c0.136,0,0.315,0,0.396,0.009c0.217,0.036,0.405,0.099,0.604,0.188
			c0.396,0.198,0.648,0.486,0.747,0.847c0.019,0.062,0.026,0.153,0.026,0.243c0,0.729-0.521,1.314-1.152,1.548
			c-0.018,0.01-0.026,0.01-0.026,0.019c0,0.027,0.306,0.045,0.685,0.297c0.459,0.297,0.738,0.747,0.738,1.261
			c0,0.243-0.055,0.477-0.172,0.711c-0.279,0.604-0.98,1.062-1.801,1.062c-0.791,0-1.458-0.369-1.674-0.928
			c-0.062-0.135-0.09-0.306-0.09-0.44c0-0.343,0.261-0.567,0.566-0.567c0.334,0,0.576,0.243,0.576,0.567
			c0,0.278-0.17,0.495-0.432,0.558l-0.062,0.019c0.278,0.233,0.675,0.404,1.115,0.404c0.315,0,0.586-0.171,0.748-0.477
			c0.117-0.226,0.152-0.459,0.152-0.909v-0.181c0-0.558-0.216-0.963-0.576-1.143c-0.135-0.055-0.135-0.055-0.549-0.063l-0.378-0.009
			l-0.027-0.019c-0.018-0.026-0.018-0.036-0.018-0.144c0-0.108,0-0.108,0.026-0.135c0.019-0.019,0.037-0.027,0.045-0.027
			c0.027,0,0.469-0.036,0.522-0.045c0.55-0.072,0.811-0.702,0.811-1.387c0-0.396-0.081-0.639-0.315-0.783
			c-0.135-0.09-0.242-0.126-0.423-0.126c-0.271,0-0.576,0.09-0.792,0.243c-0.072,0.045-0.189,0.162-0.18,0.171
			c0,0,0.026,0.009,0.062,0.019c0.243,0.026,0.423,0.261,0.423,0.521c0,0.279-0.207,0.514-0.53,0.514
			C52.174,79.809,51.985,79.575,51.985,79.259z"/>
		<path d="M58.106,77.981c0.423,0,0.838,0.162,1.152,0.45c0.171,0.162,0.297,0.352,0.414,0.612c0.234,0.522,0.333,1.125,0.333,2.053
			c0,0.99-0.108,1.603-0.388,2.134c-0.18,0.369-0.404,0.594-0.737,0.756c-0.253,0.126-0.505,0.189-0.766,0.189
			c-0.747,0-1.242-0.414-1.513-0.945c-0.279-0.531-0.387-1.144-0.387-2.134c0-1.099,0.126-1.765,0.514-2.386
			C57.026,78.279,57.502,77.981,58.106,77.981z M58.115,78.314c-0.233,0-0.468,0.1-0.647,0.288
			c-0.262,0.271-0.334,0.559-0.361,1.531c0,0.162-0.008,0.495-0.008,0.846c0,0.495,0.008,1.035,0.018,1.206
			c0.045,0.838,0.117,1.107,0.378,1.378c0.153,0.171,0.333,0.27,0.621,0.27s0.46-0.099,0.612-0.27
			c0.262-0.271,0.333-0.54,0.378-1.378c0.009-0.171,0.019-0.711,0.019-1.206c0-0.351-0.01-0.684-0.01-0.846
			c-0.026-0.973-0.099-1.261-0.359-1.531C58.592,78.422,58.394,78.314,58.115,78.314z"/>
		<path d="M62.303,77.541c0.468,0,0.773,0.188,0.918,0.495c0.045,0.099,0.054,0.162,0.054,0.278c0,0.126-0.009,0.189-0.054,0.288
			c-0.135,0.288-0.441,0.495-0.873,0.495c-0.486,0-0.82-0.27-0.91-0.611c-0.009-0.036-0.009-0.1-0.009-0.162
			c0-0.063,0-0.136,0.009-0.172C61.528,77.819,61.862,77.541,62.303,77.541z M62.924,78.324c0-0.253-0.082-0.388-0.279-0.441
			c-0.045-0.009-0.117-0.009-0.262-0.009c-0.08,0-0.135-0.01-0.171-0.01c-0.297,0-0.423,0.127-0.423,0.45
			c0,0.189,0.018,0.279,0.1,0.352c0.098,0.09,0.17,0.099,0.467,0.099C62.78,78.764,62.924,78.702,62.924,78.324z"/>
	</g>
</g>
</svg>
